<svg width="27" height="27" viewBox="0 0 27 27" fill="none" xmlns="http://www.w3.org/2000/svg">
<g id="account_circle">
<mask id="mask0_1_1737" style="mask-type:alpha" maskUnits="userSpaceOnUse" x="0" y="0" width="27" height="27">
<rect id="Bounding box" width="27" height="27" fill="#D9D9D9"/>
</mask>
<g mask="url(#mask0_1_1737)">
<path id="account_circle_2" d="M6.77596 19.4539C7.73221 18.7443 8.77391 18.1839 9.90107 17.7729C11.0282 17.3618 12.2279 17.1563 13.5 17.1563C14.7721 17.1563 15.9717 17.3618 17.0989 17.7729C18.226 18.1839 19.2677 18.7443 20.224 19.4539C20.9235 18.6851 21.4777 17.7952 21.8866 16.7842C22.2955 15.7731 22.5 14.6784 22.5 13.5C22.5 11.0063 21.6234 8.88282 19.8703 7.12969C18.1172 5.37657 15.9937 4.5 13.5 4.5C11.0062 4.5 8.88278 5.37657 7.12966 7.12969C5.37653 8.88282 4.49997 11.0063 4.49997 13.5C4.49997 14.6784 4.70442 15.7731 5.11332 16.7842C5.52222 17.7952 6.07643 18.6851 6.77596 19.4539ZM13.5003 14.3437C12.4732 14.3437 11.607 13.9912 10.9017 13.2861C10.1964 12.5811 9.84375 11.715 9.84375 10.6878C9.84375 9.6607 10.1963 8.79449 10.9013 8.0892C11.6064 7.38392 12.4725 7.03128 13.4996 7.03128C14.5268 7.03128 15.393 7.38381 16.0983 8.08887C16.8036 8.79394 17.1562 9.66004 17.1562 10.6872C17.1562 11.7143 16.8037 12.5805 16.0986 13.2858C15.3935 13.9911 14.5274 14.3437 13.5003 14.3437ZM13.5 24.1875C12.0158 24.1875 10.6237 23.9084 9.32344 23.3502C8.0232 22.792 6.89207 22.0319 5.93004 21.0699C4.96804 20.1079 4.20795 18.9768 3.64978 17.6765C3.09159 16.3763 2.8125 14.9841 2.8125 13.5C2.8125 12.0159 3.09159 10.6237 3.64978 9.32347C4.20795 8.02323 4.96804 6.8921 5.93004 5.93007C6.89207 4.96807 8.0232 4.20798 9.32344 3.64981C10.6237 3.09162 12.0158 2.81253 13.5 2.81253C14.9841 2.81253 16.3763 3.09162 17.6765 3.64981C18.9767 4.20798 20.1079 4.96807 21.0699 5.93007C22.0319 6.8921 22.792 8.02323 23.3502 9.32347C23.9084 10.6237 24.1874 12.0159 24.1874 13.5C24.1874 14.9841 23.9084 16.3763 23.3502 17.6765C22.792 18.9768 22.0319 20.1079 21.0699 21.0699C20.1079 22.0319 18.9767 22.792 17.6765 23.3502C16.3763 23.9084 14.9841 24.1875 13.5 24.1875ZM13.5 22.5C14.5154 22.5 15.4943 22.3367 16.4369 22.01C17.3794 21.6833 18.2163 21.2264 18.9476 20.6394C18.2163 20.074 17.3903 19.6334 16.4693 19.3175C15.5484 19.0017 14.5586 18.8437 13.5 18.8437C12.4413 18.8437 11.4497 18.9999 10.5252 19.3121C9.60067 19.6244 8.77639 20.0668 8.05236 20.6394C8.78361 21.2264 9.62051 21.6833 10.5631 22.01C11.5056 22.3367 12.4846 22.5 13.5 22.5ZM13.5 12.6563C14.0596 12.6563 14.5276 12.4681 14.9041 12.0916C15.2805 11.7152 15.4688 11.2471 15.4688 10.6875C15.4688 10.1279 15.2805 9.65985 14.9041 9.28339C14.5276 8.90695 14.0596 8.71873 13.5 8.71873C12.9404 8.71873 12.4723 8.90695 12.0959 9.28339C11.7194 9.65985 11.5312 10.1279 11.5312 10.6875C11.5312 11.2471 11.7194 11.7152 12.0959 12.0916C12.4723 12.4681 12.9404 12.6563 13.5 12.6563Z" fill="#323232"/>
</g>
</g>
</svg>
