<svg width="21" height="23" viewBox="0 0 21 23" fill="none" xmlns="http://www.w3.org/2000/svg">
<path id="local_mall" d="M2.97116 22.1875C2.41011 22.1875 1.9309 21.9888 1.53355 21.5914C1.13618 21.1941 0.9375 20.7149 0.9375 20.1538V7.34618C0.9375 6.78513 1.13618 6.30592 1.53355 5.90857C1.9309 5.5112 2.41011 5.31252 2.97116 5.31252H5.4375C5.4375 3.90773 5.93004 2.7128 6.91513 1.72771C7.90024 0.742621 9.09518 0.250076 10.5 0.250076C11.9048 0.250076 13.0997 0.742621 14.0848 1.72771C15.0699 2.7128 15.5624 3.90773 15.5624 5.31252H18.0288C18.5898 5.31252 19.069 5.5112 19.4664 5.90857C19.8638 6.30592 20.0624 6.78513 20.0624 7.34618V20.1538C20.0624 20.7149 19.8638 21.1941 19.4664 21.5914C19.069 21.9888 18.5898 22.1875 18.0288 22.1875H2.97116ZM2.97116 20.5H18.0288C18.1153 20.5 18.1947 20.4639 18.2668 20.3918C18.3389 20.3197 18.375 20.2404 18.375 20.1538V7.34618C18.375 7.25963 18.3389 7.18029 18.2668 7.10816C18.1947 7.03605 18.1153 6.99999 18.0288 6.99999H2.97116C2.88461 6.99999 2.80527 7.03605 2.73314 7.10816C2.66103 7.18029 2.62497 7.25963 2.62497 7.34618V20.1538C2.62497 20.2404 2.66103 20.3197 2.73314 20.3918C2.80527 20.4639 2.88461 20.5 2.97116 20.5ZM10.5 13.1875C11.9048 13.1875 13.0997 12.6949 14.0848 11.7098C15.0699 10.7247 15.5624 9.52978 15.5624 8.12499H13.875C13.875 9.06249 13.5468 9.85937 12.8906 10.5156C12.2343 11.1719 11.4375 11.5 10.5 11.5C9.56247 11.5 8.7656 11.1719 8.10935 10.5156C7.4531 9.85937 7.12497 9.06249 7.12497 8.12499H5.4375C5.4375 9.52978 5.93004 10.7247 6.91513 11.7098C7.90024 12.6949 9.09518 13.1875 10.5 13.1875ZM7.12497 5.31252H13.875C13.875 4.37502 13.5468 3.57814 12.8906 2.92189C12.2343 2.26564 11.4375 1.93752 10.5 1.93752C9.56247 1.93752 8.7656 2.26564 8.10935 2.92189C7.4531 3.57814 7.12497 4.37502 7.12497 5.31252Z" fill="#323232"/>
</svg>
