<svg width="89" height="89" viewBox="0 0 89 89" fill="none" xmlns="http://www.w3.org/2000/svg">
<g id="check-mark-svgrepo-com 1" clip-path="url(#clip0_1_644)">
<g id="Group">
<g id="Group_2">
<path id="Vector" d="M44.5003 0.000679016C19.9627 0.000679016 0 19.9631 0 44.5004C0 69.0377 19.9627 89.0001 44.5003 89.0001C69.0376 89.0001 89 69.0377 89 44.5004C89 19.9631 69.0376 0.000679016 44.5003 0.000679016ZM44.5003 81.7051C23.9852 81.7051 7.29503 65.0155 7.29503 44.5004C7.29503 23.9856 23.9852 7.29571 44.5003 7.29571C65.0151 7.29571 81.705 23.9856 81.705 44.5004C81.705 65.0155 65.0151 81.7051 44.5003 81.7051Z" fill="#0B9221"/>
<path id="Vector_2" d="M63.7506 27.4206L37.3291 53.8423L25.2491 41.7623C23.8246 40.338 21.5152 40.338 20.0907 41.7623C18.6664 43.1869 18.6664 45.4962 20.0907 46.9208L34.7499 61.58C35.4622 62.292 36.3957 62.6483 37.3291 62.6483C38.2626 62.6483 39.1961 62.292 39.9084 61.58L68.909 32.5793C70.3333 31.1548 70.3333 28.8454 68.909 27.4209C67.4845 25.9963 65.1749 25.9963 63.7506 27.4206Z" fill="#0B9221"/>
</g>
</g>
</g>
<defs>
<clipPath id="clip0_1_644">
<rect width="89" height="89" fill="white"/>
</clipPath>
</defs>
</svg>
