<svg width="27" height="27" viewBox="0 0 27 27" fill="none" xmlns="http://www.w3.org/2000/svg">
<g id="favorite">
<mask id="mask0_1_1740" style="mask-type:alpha" maskUnits="userSpaceOnUse" x="0" y="0" width="27" height="27">
<rect id="Bounding box" width="27" height="27" fill="#D9D9D9"/>
</mask>
<g mask="url(#mask0_1_1740)">
<path id="favorite_2" d="M13.5 22.8677L12.2582 21.7514C10.3933 20.0596 8.85109 18.6057 7.63161 17.3899C6.41214 16.174 5.44581 15.0919 4.73259 14.1436C4.01936 13.1953 3.52104 12.3303 3.23764 11.5485C2.95421 10.7668 2.8125 9.97356 2.8125 9.16875C2.8125 7.57213 3.35084 6.23548 4.42752 5.1588C5.5042 4.08212 6.84085 3.54378 8.43747 3.54378C9.41969 3.54378 10.3478 3.77348 11.2218 4.23287C12.0959 4.69224 12.8553 5.35102 13.5 6.20918C14.1447 5.35102 14.9041 4.69224 15.7781 4.23287C16.6521 3.77348 17.5803 3.54378 18.5625 3.54378C20.1591 3.54378 21.4957 4.08212 22.5724 5.1588C23.6491 6.23548 24.1874 7.57213 24.1874 9.16875C24.1874 9.97356 24.0457 10.7668 23.7623 11.5485C23.4789 12.3303 22.9806 13.1953 22.2674 14.1436C21.5541 15.0919 20.5896 16.174 19.3737 17.3899C18.1579 18.6057 16.6139 20.0596 14.7418 21.7514L13.5 22.8677ZM13.5 20.5875C15.3 18.9678 16.7812 17.5796 17.9437 16.4228C19.1062 15.2661 20.025 14.2612 20.7 13.4081C21.375 12.5549 21.8437 11.7974 22.1062 11.1353C22.3687 10.4733 22.5 9.81778 22.5 9.16875C22.5 8.04375 22.125 7.10625 21.375 6.35625C20.625 5.60625 19.6875 5.23125 18.5625 5.23125C17.674 5.23125 16.853 5.4833 16.0994 5.98739C15.3458 6.49147 14.749 7.19279 14.3091 8.09137H12.6908C12.2437 7.18559 11.6452 6.48246 10.8952 5.98196C10.1452 5.48149 9.32594 5.23125 8.43747 5.23125C7.31969 5.23125 6.38399 5.60625 5.63037 6.35625C4.87677 7.10625 4.49997 8.04375 4.49997 9.16875C4.49997 9.81778 4.63122 10.4733 4.89372 11.1353C5.15622 11.7974 5.62497 12.5549 6.29997 13.4081C6.97497 14.2612 7.89372 15.2643 9.05622 16.4174C10.2187 17.5706 11.7 18.9606 13.5 20.5875Z" fill="#323232"/>
</g>
</g>
</svg>
