<svg width="25" height="25" viewBox="0 0 25 25" fill="none" xmlns="http://www.w3.org/2000/svg">
<g id="icons8-search 1">
<path id="Vector" d="M10.8333 2.5C6.24083 2.5 2.5 6.24083 2.5 10.8333C2.5 15.4258 6.24083 19.1667 10.8333 19.1667C12.8304 19.1667 14.6645 18.4575 16.1019 17.2803L21.0775 22.2559C21.1543 22.3358 21.2462 22.3997 21.348 22.4437C21.4498 22.4877 21.5593 22.5109 21.6702 22.512C21.781 22.5132 21.891 22.4922 21.9937 22.4502C22.0963 22.4083 22.1896 22.3464 22.268 22.268C22.3464 22.1896 22.4083 22.0963 22.4502 21.9937C22.4922 21.891 22.5132 21.781 22.512 21.6702C22.5109 21.5593 22.4877 21.4498 22.4437 21.348C22.3997 21.2462 22.3358 21.1543 22.2559 21.0775L17.2803 16.1019C18.4575 14.6645 19.1667 12.8304 19.1667 10.8333C19.1667 6.24083 15.4258 2.5 10.8333 2.5ZM10.8333 4.16667C14.5251 4.16667 17.5 7.14156 17.5 10.8333C17.5 14.5251 14.5251 17.5 10.8333 17.5C7.14156 17.5 4.16667 14.5251 4.16667 10.8333C4.16667 7.14156 7.14156 4.16667 10.8333 4.16667Z" fill="#323232"/>
</g>
</svg>
