<svg width="22" height="22" viewBox="0 0 22 22" fill="none" xmlns="http://www.w3.org/2000/svg">
<g clip-path="url(#clip0_1_1603)">
<path d="M10.9999 0.439941C5.16794 0.439941 0.439941 5.16794 0.439941 10.9999C0.439941 16.2943 4.33994 20.6657 9.4217 21.4294V13.7988H6.80906V11.023H9.4217V9.17594C9.4217 6.11786 10.9116 4.7753 13.4532 4.7753C14.6705 4.7753 15.3142 4.86554 15.619 4.90682V7.32986H13.8852C12.8062 7.32986 12.4294 8.35274 12.4294 9.5057V11.023H15.5916L15.1625 13.7988H12.4294V21.4519C17.5836 20.7526 21.5599 16.3457 21.5599 10.9999C21.5599 5.16794 16.8319 0.439941 10.9999 0.439941Z" fill="#323232"/>
</g>
<defs>
<clipPath id="clip0_1_1603">
<rect width="22" height="22" fill="white"/>
</clipPath>
</defs>
</svg>
