<svg width="21" height="21" viewBox="0 0 21 21" fill="none" xmlns="http://www.w3.org/2000/svg">
<g clip-path="url(#clip0_1_1605)">
<path d="M7.00057 10.5C7.00057 8.56708 8.56708 6.99972 10.5 6.99972C12.4329 6.99972 14.0003 8.56708 14.0003 10.5C14.0003 12.4329 12.4329 14.0003 10.5 14.0003C8.56708 14.0003 7.00057 12.4329 7.00057 10.5ZM5.10836 10.5C5.10836 13.4778 7.52217 15.8916 10.5 15.8916C13.4778 15.8916 15.8916 13.4778 15.8916 10.5C15.8916 7.52217 13.4778 5.10836 10.5 5.10836C7.52217 5.10836 5.10836 7.52217 5.10836 10.5ZM14.845 4.89463C14.845 5.5901 15.409 6.15497 16.1054 6.15497C16.8008 6.15497 17.3657 5.5901 17.3657 4.89463C17.3657 4.19915 16.8017 3.63514 16.1054 3.63514C15.409 3.63514 14.845 4.19915 14.845 4.89463ZM6.25759 19.0467C5.23389 19.0001 4.6775 18.8296 4.30771 18.6854C3.81749 18.4946 3.46805 18.2673 3.09996 17.9C2.73271 17.5328 2.50456 17.1834 2.31458 16.6931C2.1704 16.3233 1.99992 15.767 1.95327 14.7433C1.90238 13.6364 1.89221 13.304 1.89221 10.5C1.89221 7.69604 1.90323 7.36442 1.95327 6.25674C1.99992 5.23304 2.17124 4.6775 2.31458 4.30687C2.50541 3.81664 2.73271 3.46721 3.09996 3.09911C3.46721 2.73187 3.81664 2.50372 4.30771 2.31373C4.6775 2.16955 5.23389 1.99907 6.25759 1.95242C7.36442 1.90153 7.69689 1.89136 10.5 1.89136C13.304 1.89136 13.6356 1.90238 14.7433 1.95242C15.767 1.99907 16.3225 2.1704 16.6931 2.31373C17.1834 2.50372 17.5328 2.73187 17.9009 3.09911C18.2681 3.46636 18.4954 3.81664 18.6863 4.30687C18.8305 4.67666 19.0009 5.23304 19.0476 6.25674C19.0985 7.36442 19.1086 7.69604 19.1086 10.5C19.1086 13.3031 19.0985 13.6356 19.0476 14.7433C19.0009 15.767 18.8296 16.3233 18.6863 16.6931C18.4954 17.1834 18.2681 17.5328 17.9009 17.9C17.5336 18.2673 17.1834 18.4946 16.6931 18.6854C16.3233 18.8296 15.767 19.0001 14.7433 19.0467C13.6364 19.0976 13.304 19.1078 10.5 19.1078C7.69689 19.1078 7.36442 19.0976 6.25759 19.0467ZM6.17108 0.0636107C5.05323 0.114499 4.2899 0.291761 3.62242 0.551292C2.93203 0.819305 2.34681 1.17892 1.76244 1.76244C1.17892 2.34596 0.819305 2.93118 0.551292 3.62242C0.291761 4.2899 0.114499 5.05323 0.0636107 6.17108C0.011874 7.29063 0 7.64855 0 10.5C0 13.3515 0.011874 13.7094 0.0636107 14.8289C0.114499 15.9468 0.291761 16.7101 0.551292 17.3776C0.819305 18.068 1.17807 18.654 1.76244 19.2376C2.34596 19.8211 2.93118 20.1798 3.62242 20.4487C4.29075 20.7082 5.05323 20.8855 6.17108 20.9364C7.29148 20.9873 7.64855 21 10.5 21C13.3523 21 13.7094 20.9881 14.8289 20.9364C15.9468 20.8855 16.7101 20.7082 17.3776 20.4487C18.068 20.1798 18.6532 19.8211 19.2376 19.2376C19.8211 18.654 20.1798 18.068 20.4487 17.3776C20.7082 16.7101 20.8863 15.9468 20.9364 14.8289C20.9873 13.7085 20.9992 13.3515 20.9992 10.5C20.9992 7.64855 20.9873 7.29063 20.9364 6.17108C20.8855 5.05323 20.7082 4.2899 20.4487 3.62242C20.1798 2.93203 19.8211 2.34681 19.2376 1.76244C18.654 1.17892 18.068 0.819305 17.3784 0.551292C16.7101 0.291761 15.9468 0.113651 14.8298 0.0636107C13.7102 0.0127221 13.3523 0 10.5008 0C7.64855 0 7.29148 0.011874 6.17108 0.0636107Z" fill="#323232"/>
</g>
<defs>
<clipPath id="clip0_1_1605">
<rect width="21" height="21" fill="white"/>
</clipPath>
</defs>
</svg>
