<svg width="22" height="22" viewBox="0 0 22 22" fill="none" xmlns="http://www.w3.org/2000/svg">
<g clip-path="url(#clip0_1_1607)">
<path d="M10.9999 0.879883C16.5892 0.879883 21.1199 5.41056 21.1199 10.9999C21.1199 16.5892 16.5892 21.1199 10.9999 21.1199C5.41056 21.1199 0.879883 16.5892 0.879883 10.9999C0.879883 5.41056 5.41056 0.879883 10.9999 0.879883ZM14.4908 15.1249C14.677 14.5538 15.549 8.86192 15.6568 7.74036C15.6894 7.40068 15.582 7.17496 15.3717 7.0742C15.1174 6.95188 14.7408 7.01304 14.3038 7.17056C13.7046 7.3866 6.04328 10.6395 5.60064 10.8278C5.18088 11.006 4.784 11.2005 4.784 11.4821C4.784 11.6801 4.90148 11.7914 5.22532 11.9072C5.56236 12.0273 6.41112 12.2847 6.91228 12.4228C7.39496 12.5562 7.94452 12.4404 8.25252 12.249C8.579 12.0462 12.3467 9.525 12.6173 9.30412C12.8875 9.08324 13.1031 9.36616 12.8822 9.58748C12.6613 9.80836 10.075 12.3186 9.734 12.6662C9.31996 13.0881 9.61388 13.5255 9.89152 13.7006C10.2088 13.9004 12.4902 15.4307 12.8338 15.6762C13.1774 15.9217 13.5259 16.033 13.8449 16.033C14.1639 16.033 14.332 15.6128 14.4908 15.1249Z" fill="#323232"/>
</g>
<defs>
<clipPath id="clip0_1_1607">
<rect width="22" height="22" fill="white"/>
</clipPath>
</defs>
</svg>
