<svg width="24" height="24" viewBox="0 0 24 24" fill="none" xmlns="http://www.w3.org/2000/svg">
<path d="M11.7129 0.50002C11.0313 0.503926 10.3477 0.544942 9.6582 0.628926C8.33985 0.791035 7.0332 1.06057 5.7793 1.63674C3.78516 2.55275 2.37109 4.10744 1.96094 6.36721C1.78711 7.32033 1.64649 8.28713 1.56641 9.25979C1.41211 11.1485 1.50781 13.043 2.04297 14.9043C2.46484 16.3711 3.24219 17.6895 4.60352 18.5449C5.17969 18.9063 5.93945 19.0821 6.33594 19.2656C6.44727 19.3184 6.47461 19.3496 6.48047 19.3574C6.48633 19.3633 6.50195 19.377 6.5 19.4942C6.48633 20.6895 6.5 23.002 6.5 23.002L6.50195 23.5H7.39453L7.53906 23.3594C7.53906 23.3594 9.80664 21.1778 10.627 20.2793C10.7754 20.1192 10.8516 20.0293 10.8672 20.0196C10.8809 20.0098 10.8574 20.0039 11.0098 20C12.0859 19.9785 13.1602 19.9375 14.2344 19.8789C15.6504 19.8008 17.0938 19.666 18.4824 19.086C19.6914 18.5801 20.7012 17.7539 21.3125 16.5156C21.9375 15.2461 22.2715 13.9004 22.3965 12.5078C22.6035 10.1895 22.5312 7.86721 21.8906 5.57814C21.5137 4.23635 20.7559 3.10158 19.5938 2.3008C18.2031 1.34377 16.6348 0.984395 15.0996 0.755879C14.2031 0.623067 13.3008 0.535176 12.3945 0.507832C12.168 0.501973 11.9414 0.498067 11.7129 0.50002ZM12.3672 1.50783C13.2285 1.53127 14.0898 1.61525 14.9531 1.74416C16.4336 1.96486 17.8301 2.3008 19.0273 3.12502C19.998 3.79299 20.6035 4.69533 20.9277 5.84572C21.5254 7.98635 21.6016 10.1797 21.4004 12.4199C21.2852 13.711 20.9785 14.9278 20.4141 16.0742C19.916 17.086 19.1387 17.7285 18.0957 18.1641C16.8848 18.6699 15.5684 18.8047 14.1816 18.8809C13.1191 18.9395 12.0547 18.9785 10.9902 19C10.7227 19.0059 10.4609 19.0762 10.2754 19.2129C10.0898 19.3496 10.0059 19.4766 9.89063 19.6016C9.30469 20.2422 8.13672 21.3692 7.5 21.9863C7.4961 21.2403 7.49024 20.3379 7.5 19.5059C7.50391 19.25 7.44531 18.9883 7.29883 18.7813C7.15235 18.5742 6.95117 18.4492 6.75781 18.3594C6.19336 18.0977 5.45508 17.8985 5.13477 17.6973C4.01563 16.9942 3.38086 15.9395 3.00391 14.627C2.50977 12.9102 2.41602 11.1426 2.5625 9.34377C2.64063 8.41018 2.77539 7.47463 2.94531 6.54689C3.30078 4.59182 4.41797 3.36135 6.19531 2.54494C7.31836 2.02932 8.51758 1.77541 9.78125 1.62111C10.6426 1.51564 11.5039 1.48244 12.3672 1.50783ZM12.5781 4.00002C12.166 4.00002 11.7656 4.04689 11.377 4.13283C11.1094 4.19533 10.9395 4.46291 11 4.73244C11.0605 5.00197 11.3301 5.16994 11.5996 5.10939C11.9141 5.03713 12.2422 5.00002 12.5781 5.00002C15.0195 5.00002 16.9883 6.96877 16.9883 9.40822C16.9883 9.74611 16.9512 10.0742 16.8789 10.3906C16.8184 10.6582 16.9863 10.9278 17.2559 10.9883C17.5254 11.0488 17.793 10.8789 17.8535 10.6094C17.9414 10.2227 17.9883 9.82229 17.9883 9.40822C17.9883 6.42775 15.5605 4.00002 12.5781 4.00002ZM7.58984 5.00197C7.50781 4.99807 7.42383 5.00393 7.33594 5.02346C6.42774 5.22463 5.52539 5.88283 5.5 7.05861C5.52539 7.22268 5.52344 7.39846 5.58399 7.54689C5.88086 8.27346 6.13867 9.02346 6.50977 9.71096C8.31641 13.0508 11.0488 15.3731 14.5313 16.8477C14.9473 17.0235 15.377 17.0606 15.7969 16.8848C16.375 16.6446 16.8652 16.2735 17.1914 15.7403C17.6387 15.0078 17.6445 14.5 16.9082 13.959C16.4258 13.6035 15.9512 13.2383 15.4629 12.8906C14.7188 12.3633 13.9141 12.2715 13.3594 13.1973C13.3301 13.2442 13.2871 13.2832 13.25 13.3223C12.9648 13.625 12.6152 13.6992 12.2441 13.5469C10.8359 12.9668 9.74805 12.0313 9.0918 10.6387C8.70508 9.82033 8.81055 9.41018 9.5332 8.86525C9.60547 8.81252 9.67383 8.75588 9.74024 8.69533C10.0566 8.40627 10.1406 8.06252 9.95313 7.67385C9.5293 6.78713 8.96484 5.99611 8.25 5.31447C8.05664 5.13088 7.83594 5.01564 7.58984 5.00197ZM12.5703 5.50002C12.3496 5.50002 12.1309 5.5176 11.916 5.55471C11.7344 5.57814 11.5801 5.69924 11.5137 5.86916C11.4473 6.04104 11.4805 6.23439 11.5977 6.37502C11.7168 6.51369 11.9043 6.57814 12.084 6.53908C12.2402 6.51369 12.4043 6.50002 12.5703 6.50002C14.1953 6.50002 15.5 7.80471 15.5 9.42971C15.5 9.59572 15.4863 9.75979 15.4609 9.91604C15.4219 10.0957 15.4863 10.2832 15.625 10.4024C15.7656 10.5196 15.959 10.5528 16.1309 10.4863C16.3008 10.4199 16.4219 10.2656 16.4453 10.084C16.4824 9.86916 16.5 9.65041 16.5 9.42971C16.5 7.26565 14.7344 5.50002 12.5703 5.50002ZM12.5 7.00002C12.3203 6.99807 12.1523 7.09182 12.0605 7.24807C11.9707 7.40432 11.9707 7.59572 12.0605 7.75197C12.1523 7.90822 12.3203 8.00197 12.5 8.00002C13.334 8.00002 14 8.66604 14 9.50002C13.998 9.67971 14.0918 9.84768 14.248 9.93947C14.4043 10.0293 14.5957 10.0293 14.752 9.93947C14.9082 9.84768 15.002 9.67971 15 9.50002C15 8.12502 13.875 7.00002 12.5 7.00002Z" fill="#323232"/>
</svg>
