<svg width="22" height="22" viewBox="0 0 22 22" fill="none" xmlns="http://www.w3.org/2000/svg">
<g clip-path="url(#clip0_1_1612)">
<path d="M19 0.5H3C1.6215 0.5 0.5 1.6215 0.5 3V19C0.5 20.3785 1.6215 21.5 3 21.5H19C20.3785 21.5 21.5 20.3785 21.5 19V3C21.5 1.6215 20.3785 0.5 19 0.5ZM17.003 9.6615C16.8895 9.672 16.7745 9.679 16.658 9.679C15.3465 9.679 14.194 9.0045 13.5235 7.985C13.5235 10.6595 13.5235 13.7025 13.5235 13.7535C13.5235 16.108 11.6145 18.017 9.26 18.017C6.9055 18.017 4.9965 16.108 4.9965 13.7535C4.9965 11.399 6.9055 9.49 9.26 9.49C9.349 9.49 9.436 9.498 9.5235 9.5035V11.6045C9.436 11.594 9.35 11.578 9.26 11.578C8.058 11.578 7.084 12.552 7.084 13.754C7.084 14.956 8.058 15.93 9.26 15.93C10.462 15.93 11.5235 14.983 11.5235 13.781C11.5235 13.7335 11.5445 3.984 11.5445 3.984H13.5525C13.7415 5.7795 15.191 7.1965 17.003 7.3265V9.6615Z" fill="#323232"/>
</g>
<defs>
<clipPath id="clip0_1_1612">
<rect width="22" height="22" fill="white"/>
</clipPath>
</defs>
</svg>
