<svg width="24" height="24" viewBox="0 0 24 24" fill="none" xmlns="http://www.w3.org/2000/svg">
<path d="M11.9478 3.7334C8.42695 3.7334 5.1207 4.00006 3.36029 4.37298C2.18737 4.63965 1.17279 5.43965 0.960286 6.66673C0.747787 7.9459 0.533203 9.86673 0.533203 12.2667C0.533203 14.6667 0.745703 16.5334 1.01237 17.8667C1.22695 19.0396 2.23945 19.8938 3.41237 20.1605C5.28112 20.5334 8.47904 20.8001 11.9999 20.8001C15.5207 20.8001 18.7186 20.5334 20.5853 20.1605C21.7603 19.8938 22.7728 19.0938 22.9853 17.8667C23.1999 16.5334 23.4665 14.6146 23.5186 12.2146C23.5186 9.81465 23.252 7.89382 22.9853 6.56048C22.7728 5.38757 21.7603 4.5334 20.5853 4.26673C18.7186 4.00007 15.4665 3.7334 11.9478 3.7334ZM11.9478 4.80007C15.7874 4.80007 18.879 5.11882 20.3728 5.38548C21.1728 5.60007 21.8124 6.1334 21.9186 6.82715C22.2395 8.5334 22.452 10.348 22.452 12.2146C22.3999 14.5063 22.1332 16.373 21.9186 17.7063C21.7603 18.7188 20.6936 19.0396 20.3728 19.148C18.452 19.5209 15.252 19.7855 12.052 19.7855C8.85195 19.7855 5.59987 19.573 3.7332 19.148C2.9332 18.9334 2.29362 18.4001 2.18737 17.7063C1.76029 16.2126 1.59987 14.2396 1.59987 12.2667C1.59987 9.81257 1.81445 8.00007 2.02695 6.88132C2.18737 5.86673 3.30612 5.5459 3.57279 5.43965C5.3332 5.06673 8.58737 4.80007 11.9478 4.80007ZM9.06654 8.00007V16.5334L16.5332 12.2667L9.06654 8.00007ZM10.1332 9.81465L14.3999 12.2667L10.1332 14.7188V9.81465Z" fill="#323232"/>
</svg>
